<svg width="182" height="194" viewBox="0 0 182 194" fill="none" xmlns="http://www.w3.org/2000/svg">
<path d="M97.21 116.95L122.728 109.605L122.741 108.542C122.71 104.377 122.612 88.7259 120.12 79.2878C119.718 77.5987 119.103 75.9675 118.289 74.4334C113.046 65.2621 77.7825 51.9884 77.7825 51.9884L78.7846 64.2088L101.88 83.231C98.9401 97.0637 97.21 116.95 97.21 116.95Z" fill="#847DFC"/>
<path opacity="0.7" d="M97.21 116.95L122.728 109.605L122.741 108.542C122.71 104.377 122.612 88.7259 120.12 79.2878C119.718 77.5987 119.103 75.9675 118.289 74.4334C113.046 65.2621 77.7825 51.9884 77.7825 51.9884L78.7846 64.2088L101.88 83.231C98.9401 97.0637 97.21 116.95 97.21 116.95Z" fill="white"/>
<path d="M83.2323 154.1C80.4528 157.002 77.7075 160.066 74.9399 163.025C73.5613 164.529 72.1723 165.984 70.8449 167.409C69.5175 168.834 68.1149 170.224 66.8787 171.358C66.5823 171.641 66.2744 171.91 66.0454 172.111C65.8165 172.311 65.6306 172.436 65.6862 172.458C65.7806 172.425 65.8788 172.404 65.9785 172.396L66.0516 172.381L65.9704 172.398L65.808 172.432L65.168 172.694L63.8491 173.236C62.0619 173.969 60.1636 174.658 58.2675 175.397C54.4701 176.852 50.5557 178.314 46.7417 180.052L46.6687 180.067C45.8955 180.425 45.2649 181.032 44.8779 181.79C44.4909 182.549 44.37 183.416 44.5347 184.252C44.6994 185.087 45.14 185.843 45.7859 186.399C46.4317 186.954 47.2454 187.276 48.0964 187.313C52.4039 187.452 56.7158 187.265 60.9952 186.753C63.1407 186.512 65.29 186.169 67.4987 185.745C68.0508 185.629 68.5947 185.514 69.1711 185.392L70.0235 185.212L70.3483 185.144L70.6081 185.089C70.9469 184.966 71.2823 184.828 71.6177 184.689C72.4031 184.314 73.1629 183.887 73.8921 183.412C74.5128 183.018 75.0361 182.645 75.553 182.281C77.565 180.805 79.1787 179.37 80.8864 177.899C82.5941 176.428 84.0788 174.944 85.6202 173.448C88.6685 170.414 91.5736 167.384 94.362 164.081C95.0243 163.355 95.5371 162.505 95.8709 161.58C96.2047 160.655 96.3532 159.673 96.3077 158.691C96.2622 157.709 96.0236 156.745 95.6057 155.855C95.1878 154.965 94.5987 154.166 93.872 153.504C93.1454 152.842 92.2953 152.329 91.3705 151.995C90.4456 151.661 89.4641 151.513 88.4819 151.558C87.4997 151.604 86.5361 151.842 85.6461 152.26C84.756 152.678 83.957 153.267 83.2947 153.994L83.2323 154.1Z" fill="#847DFC"/>
<path opacity="0.7" d="M83.2323 154.1C80.4528 157.002 77.7075 160.066 74.9399 163.025C73.5613 164.529 72.1723 165.984 70.8449 167.409C69.5175 168.834 68.1149 170.224 66.8787 171.358C66.5823 171.641 66.2744 171.91 66.0454 172.111C65.8165 172.311 65.6306 172.436 65.6862 172.458C65.7806 172.425 65.8788 172.404 65.9785 172.396L66.0516 172.381L65.9704 172.398L65.808 172.432L65.168 172.694L63.8491 173.236C62.0619 173.969 60.1636 174.658 58.2675 175.397C54.4701 176.852 50.5557 178.314 46.7417 180.052L46.6687 180.067C45.8955 180.425 45.2649 181.032 44.8779 181.79C44.4909 182.549 44.37 183.416 44.5347 184.252C44.6994 185.087 45.14 185.843 45.7859 186.399C46.4317 186.954 47.2454 187.276 48.0964 187.313C52.4039 187.452 56.7158 187.265 60.9952 186.753C63.1407 186.512 65.29 186.169 67.4987 185.745C68.0508 185.629 68.5947 185.514 69.1711 185.392L70.0235 185.212L70.3483 185.144L70.6081 185.089C70.9469 184.966 71.2823 184.828 71.6177 184.689C72.4031 184.314 73.1629 183.887 73.8921 183.412C74.5128 183.018 75.0361 182.645 75.553 182.281C77.565 180.805 79.1787 179.37 80.8864 177.899C82.5941 176.428 84.0788 174.944 85.6202 173.448C88.6685 170.414 91.5736 167.384 94.362 164.081C95.0243 163.355 95.5371 162.505 95.8709 161.58C96.2047 160.655 96.3532 159.673 96.3077 158.691C96.2622 157.709 96.0236 156.745 95.6057 155.855C95.1878 154.965 94.5987 154.166 93.872 153.504C93.1454 152.842 92.2953 152.329 91.3705 151.995C90.4456 151.661 89.4641 151.513 88.4819 151.558C87.4997 151.604 86.5361 151.842 85.6461 152.26C84.756 152.678 83.957 153.267 83.2947 153.994L83.2323 154.1Z" fill="white"/>
<path d="M65.7111 172.453C65.7111 172.453 72.6311 179.244 72.4367 184.229L73.9473 183.35C73.9473 183.35 71.6719 174.74 66.0865 172.103L65.7111 172.453Z" fill="#847DFC"/>
<path d="M45.2448 180.793L38.3911 183.156L44.0354 188.884C44.0354 188.884 50.0172 186.409 48.6131 183.372L45.2448 180.793Z" fill="#847DFC"/>
<path d="M33.8086 188.684L40.3349 191.962L44.0353 188.883L38.391 183.155L33.8086 188.684Z" fill="#847DFC"/>
<g opacity="0.5">
<path opacity="0.5" d="M45.2467 180.793L38.3931 183.155L44.0374 188.884C44.0374 188.884 50.0192 186.408 48.6151 183.372L45.2467 180.793Z" fill="white"/>
<path opacity="0.5" d="M33.8096 188.684L40.3359 191.962L44.0363 188.883L38.392 183.155L33.8096 188.684Z" fill="white"/>
</g>
<path d="M45.2453 180.793C45.2453 180.793 48.8694 183.7 47.1033 187.185L48.1354 187.374C48.1354 187.374 51.4452 184.131 46.7774 180.096L45.2453 180.793Z" fill="#847DFC"/>
<path opacity="0.4" d="M65.7111 172.453C65.7111 172.453 72.6311 179.244 72.4367 184.229L73.9473 183.35C73.9473 183.35 71.6719 174.74 66.0865 172.103L65.7111 172.453Z" fill="white"/>
<path opacity="0.4" d="M45.2453 180.793C45.2453 180.793 48.8694 183.7 47.1033 187.185L48.1354 187.374C48.1354 187.374 51.4452 184.131 46.7774 180.096L45.2453 180.793Z" fill="white"/>
<path d="M80.1278 55.665L80.3991 62.8159C80.471 63.1569 79.1379 64.193 78.7836 64.2423L70.873 65.4542C70.4558 65.4911 70.0408 65.3623 69.7179 65.0956C69.395 64.8289 69.1901 64.4457 69.1475 64.0291C68.8906 60.5216 68.9004 58.8405 68.5767 54.4143C68.3428 51.6991 67.6139 46.3578 67.8718 42.5976C68.1296 38.8373 71.8472 39.2144 72.0643 40.8053C72.6013 44.6352 75.5675 49.6484 77.7747 51.9895C78.1663 52.3986 80.1023 55.1022 80.1278 55.665Z" fill="#847DFC"/>
<path opacity="0.5" d="M80.9162 55.9484L80.0236 63.5315C80.0956 63.8725 79.1535 64.1901 78.7992 64.2394L70.8886 65.4512C70.4714 65.4882 70.0565 65.3594 69.7335 65.0927C69.4106 64.826 69.2057 64.4428 69.1632 64.0261C68.9062 60.5187 68.916 58.8376 68.5923 54.4114C68.3584 51.6962 67.6296 46.3549 67.8874 42.5946C68.1452 38.8344 71.8628 39.2115 72.0799 40.8023C72.6169 44.6323 75.5831 49.6455 77.7903 51.9865C78.1657 52.3991 80.8663 55.3908 80.9162 55.9484Z" fill="white"/>
<path opacity="0.1" d="M122.742 108.543C122.711 104.377 122.613 88.7263 120.12 79.2882C118.628 83.7076 115.487 94.623 116.811 104.91C117.427 110.038 119.934 110.585 122.742 108.543Z" fill="black"/>
<path d="M99.6083 120.718C99.6083 120.718 98.4957 104.841 114.094 98.5887C114.094 98.5887 122.626 81.2353 134.151 63.1991L117.669 23.9634L125.258 17.9348C125.258 17.9348 149.753 44.7941 151.318 65.3844C152.883 85.9747 129.232 120.647 129.232 120.647L99.6083 120.718Z" fill="#847DFC"/>
<path opacity="0.7" d="M99.6083 120.718C99.6083 120.718 98.4957 104.841 114.094 98.5887C114.094 98.5887 122.626 81.2353 134.151 63.1991L117.669 23.9634L125.258 17.9348C125.258 17.9348 149.753 44.7941 151.318 65.3844C152.883 85.9747 129.232 120.647 129.232 120.647L99.6083 120.718Z" fill="white"/>
<path d="M123.351 99.0098C123.644 100.413 123.395 101.875 122.653 103.102C121.911 104.328 120.732 105.228 119.353 105.62L100.155 111.089C98.9285 111.44 97.6197 111.367 96.4401 110.882C95.2605 110.397 94.279 109.528 93.6544 108.416C93.4355 108.03 93.2634 107.619 93.1418 107.193C93.1144 107.063 93.0869 106.933 93.0595 106.803C92.7644 105.401 93.0121 103.939 93.7526 102.712C94.4931 101.486 95.6714 100.586 97.0495 100.194L116.248 94.7257C117.693 94.3181 119.24 94.4997 120.551 95.2305C121.863 95.9614 122.831 97.1821 123.244 98.6253C123.288 98.7517 123.329 98.9043 123.351 99.0098Z" fill="#847DFC"/>
<path opacity="0.2" d="M122.028 97.4821C122.321 98.884 122.073 100.345 121.333 101.571C120.592 102.797 119.415 103.697 118.038 104.091L98.8402 109.559C97.9528 109.812 97.017 109.844 96.1146 109.651C95.2121 109.459 94.3706 109.048 93.6634 108.456C93.4444 108.07 93.2723 107.659 93.1508 107.232C93.1233 107.103 93.0959 106.973 93.0685 106.843C92.7734 105.441 93.0211 103.979 93.7616 102.752C94.5021 101.526 95.6803 100.626 97.0585 100.234L116.257 94.7656C117.144 94.5129 118.08 94.4814 118.982 94.6738C119.885 94.8661 120.726 95.2766 121.434 95.8693C121.652 96.2551 121.825 96.6658 121.946 97.0925C121.965 97.1818 121.992 97.3116 122.028 97.4821Z" fill="white"/>
<path d="M131.252 121.824C130.579 118.892 128.995 116.249 126.727 114.274C124.459 112.298 121.624 111.091 118.628 110.827C107.719 109.483 111.868 121.828 111.868 121.828L130.988 122.66L131.252 121.824Z" fill="#847DFC"/>
<path opacity="0.4" d="M131.252 121.824C130.579 118.892 128.995 116.249 126.727 114.274C124.459 112.298 121.624 111.091 118.628 110.827C107.719 109.483 111.868 121.828 111.868 121.828L130.988 122.66L131.252 121.824Z" fill="white"/>
<path d="M115.714 112.248C115.714 112.248 126.482 112.519 130.324 120.476C134.166 128.434 123.672 149.865 118.374 154.376C113.076 158.886 89.822 167.076 86.2591 164.258C73.9835 154.553 90.9457 131.019 97.1674 124.778C103.389 118.538 115.714 112.248 115.714 112.248Z" fill="#847DFC"/>
<path opacity="0.7" d="M86.2614 164.274C86.4292 164.402 86.6165 164.503 86.8162 164.572C88.9255 165.365 94.0983 164.401 99.7173 162.697C106.786 160.552 114.569 157.247 117.85 154.791L118.374 154.383C122.461 150.883 129.657 137.289 130.951 127.628C131.334 124.783 131.195 122.276 130.289 120.475C126.45 112.534 115.679 112.246 115.679 112.246C115.679 112.246 103.376 118.6 97.1308 124.811C90.886 131.022 73.9806 154.544 86.2614 164.274Z" fill="white"/>
<path opacity="0.1" d="M86.8167 164.572C88.926 165.365 94.0988 164.4 99.7178 162.697C108.853 147.48 100.045 139.138 100.045 139.138C89.9098 140.336 85.8073 155.491 86.8167 164.572Z" fill="black"/>
<path d="M122.743 108.542C122.743 108.542 119.175 100.035 116.923 99.4078C114.67 98.7808 93.384 105.284 90.8285 106.917C88.2731 108.55 76.0393 124.837 75.8123 128.743C75.5854 132.649 82.1589 141.294 82.1589 141.294C82.1589 141.294 98.336 141.119 104.111 137.144C109.887 133.168 122.136 113.741 122.743 108.542Z" fill="#847DFC"/>
<path opacity="0.5" d="M82.155 141.286C82.155 141.286 98.3304 141.103 104.106 137.128C109.881 133.152 122.144 113.748 122.733 108.544C122.733 108.544 119.132 100.044 116.914 99.3755C114.695 98.7075 93.3848 105.258 90.8195 106.885C88.2542 108.512 76.0321 124.812 75.8115 128.709C75.8315 129.881 76.104 131.036 76.6107 132.093C78.3243 136.235 82.155 141.286 82.155 141.286Z" fill="white"/>
<path opacity="0.2" d="M76.6156 132.109C78.8022 132.063 92.9669 131.634 98.29 127.967C104.056 123.985 116.327 104.621 116.922 99.4074C114.705 98.7475 93.3931 105.29 90.8279 106.917C88.2626 108.544 76.0404 124.844 75.8198 128.741C75.8411 129.908 76.1124 131.056 76.6156 132.109Z" fill="white"/>
<path d="M97.1621 160.419C104.024 151.29 102.186 138.328 93.0577 131.466C83.9294 124.605 70.967 126.442 64.1055 135.571C57.244 144.699 59.0816 157.661 68.2099 164.523C77.3383 171.385 90.3006 169.547 97.1621 160.419Z" fill="#292929"/>
<path opacity="0.7" d="M97.1621 160.419C104.024 151.29 102.186 138.328 93.0577 131.466C83.9294 124.605 70.967 126.442 64.1055 135.571C57.244 144.699 59.0816 157.661 68.2099 164.523C77.3383 171.385 90.3006 169.547 97.1621 160.419Z" fill="white"/>
<path opacity="0.2" d="M91.2764 164.725C94.5899 162.619 97.2044 159.578 98.7892 155.986C100.374 152.394 100.858 148.412 100.179 144.545C99.5011 140.678 97.6911 137.099 94.9784 134.261C92.2656 131.423 88.7721 129.453 84.9396 128.6C81.1072 127.748 77.108 128.051 73.448 129.472C69.7881 130.893 66.6317 133.368 64.3782 136.582C62.1247 139.797 60.8754 143.609 60.7883 147.534C60.7011 151.459 61.7801 155.322 63.8887 158.633C66.7157 163.07 71.1875 166.203 76.3224 167.345C81.4573 168.487 86.8356 167.545 91.2764 164.725Z" fill="black"/>
<path opacity="0.3" d="M101.659 149.289C101.956 141.055 97.2139 134.201 91.0682 133.98C84.9225 133.759 79.7001 140.254 79.4038 148.488C79.1074 156.722 83.8493 163.577 89.995 163.798C96.1408 164.019 101.363 157.523 101.659 149.289Z" fill="black"/>
<path d="M85.5235 157.561C85.5235 157.561 90.0933 160.489 91.0247 159.317C91.9561 158.145 94.7466 160.558 96.2288 158.541C97.711 156.524 100.285 151.002 97.529 146.903C94.7727 142.804 84.5042 150.763 85.5235 157.561Z" fill="#292929"/>
<path opacity="0.8" d="M85.5235 157.561C85.5235 157.561 90.1014 160.487 91.0246 159.317C91.1713 159.166 91.3548 159.057 91.5569 158.999C91.759 158.942 91.9726 158.938 92.1766 158.989C93.4134 159.144 95.162 159.996 96.2288 158.541C97.7127 156.531 100.277 151.004 97.529 146.903C96.3516 145.142 93.787 145.607 91.3161 147.239C90.6485 147.683 90.0191 148.182 89.4345 148.73C87.0435 150.982 85.1786 154.199 85.4725 157.199C85.5161 157.325 85.5012 157.455 85.5235 157.561Z" fill="white"/>
<path opacity="0.2" d="M85.5223 157.561C85.5223 157.561 90.1002 160.487 91.0235 159.317C91.1701 159.166 91.3536 159.057 91.5557 158.999C91.7578 158.942 91.9715 158.938 92.1754 158.989C96.1122 155.342 92.6797 149.325 91.315 147.239C90.6473 147.683 90.0179 148.181 89.4333 148.73C87.8045 151.398 86.4757 154.238 85.4713 157.198C85.5149 157.325 85.5 157.455 85.5223 157.561Z" fill="black"/>
<path d="M77.3395 158.966C77.4798 158.949 77.6184 158.92 77.7535 158.879C81.5947 157.873 78.875 150.331 76.0542 146.288C74.8277 144.495 73.4765 143.839 72.4352 144.008C71.1046 144.212 70.255 145.731 70.4707 147.958C70.633 149.451 72.0142 151.254 72.0575 152.262C72.1007 153.271 73.8077 159.389 77.3395 158.966Z" fill="#292929"/>
<path opacity="0.9" d="M77.3395 158.966C77.4798 158.949 77.6184 158.92 77.7535 158.879C81.5947 157.873 78.875 150.331 76.0542 146.288C74.8277 144.495 73.4765 143.839 72.4352 144.008C71.1046 144.212 70.255 145.731 70.4707 147.958C70.633 149.451 72.0142 151.254 72.0575 152.262C72.1007 153.271 73.8077 159.389 77.3395 158.966Z" fill="white"/>
<path opacity="0.2" d="M77.3396 158.965C77.48 158.949 77.6186 158.919 77.7537 158.878C81.5949 157.872 78.8752 150.331 76.0544 146.287C74.8278 144.494 73.4767 143.838 72.4354 144.007C72.1903 144.278 71.9681 144.569 71.7709 144.876C70.7491 146.423 73.0852 151.103 73.3594 152.402C73.522 153.614 74.8048 157.482 77.3396 158.965Z" fill="black"/>
<path d="M88.4744 142.895C91.2054 148.441 93.0839 151.555 91.9332 155.826C90.1952 162.256 82.1257 163.519 77.7819 158.89C73.8743 154.72 70.0474 146.352 74.13 141.267C75.031 140.141 76.2026 139.262 77.5355 138.712C78.8683 138.162 80.3189 137.958 81.7516 138.121C83.1843 138.284 84.5524 138.807 85.7281 139.642C86.9038 140.476 87.8487 141.596 88.4744 142.895Z" fill="#847DFC"/>
<path d="M81.1624 148.957C81.4079 149.397 81.3577 149.883 81.0941 150.04C80.8306 150.198 80.3693 149.981 80.1401 149.538C79.9108 149.094 79.9447 148.612 80.2083 148.455C80.4719 148.298 80.893 148.565 81.1624 148.957Z" fill="#292929"/>
<path d="M76.171 151.742C76.4148 152.173 76.3663 152.667 76.1027 152.824C75.8391 152.982 75.3762 152.757 75.1469 152.314C74.9176 151.87 74.9516 151.388 75.2169 151.239C75.4822 151.09 75.919 151.311 76.171 151.742Z" fill="#292929"/>
<path d="M77.8702 151.078C78.0661 152.67 78.041 154.282 77.7958 155.868C78.2129 155.901 78.6325 155.846 79.0268 155.706C79.4211 155.566 79.7812 155.344 80.0833 155.054L77.8702 151.078Z" fill="#847DFC"/>
<path d="M78.9666 146.182C79.0079 146.148 79.0567 146.125 79.109 146.114C79.1613 146.103 79.2155 146.104 79.267 146.119C79.6084 146.265 79.9792 146.329 80.3498 146.307C80.7205 146.284 81.0808 146.176 81.4023 145.99C81.4671 145.945 81.547 145.928 81.6246 145.942C81.7021 145.956 81.7711 146 81.8164 146.064C81.8396 146.095 81.8563 146.13 81.8655 146.167C81.8746 146.204 81.8761 146.243 81.8698 146.281C81.8635 146.318 81.8496 146.355 81.8288 146.387C81.8081 146.419 81.7809 146.447 81.7491 146.468C81.3462 146.714 80.8907 146.86 80.4202 146.894C79.9496 146.929 79.4777 146.851 79.0433 146.666C78.9719 146.637 78.9147 146.58 78.8839 146.509C78.8531 146.438 78.851 146.358 78.8782 146.286C78.9016 146.246 78.9315 146.211 78.9666 146.182Z" fill="#292929"/>
<path d="M73.8032 148.603C73.8554 148.575 73.9146 148.563 73.9737 148.567C74.0124 148.57 74.0501 148.58 74.0848 148.598C74.1194 148.615 74.1503 148.639 74.1755 148.668C74.2006 148.698 74.2197 148.732 74.2314 148.769C74.2432 148.806 74.2474 148.845 74.2439 148.884C74.2139 149.349 74.073 149.801 73.8329 150.201C73.5929 150.602 73.2607 150.939 72.864 151.185C72.7937 151.219 72.7132 151.226 72.6381 151.204C72.563 151.182 72.4986 151.133 72.4575 151.067C72.4387 151.033 72.4269 150.996 72.4227 150.957C72.4186 150.919 72.4222 150.88 72.4333 150.842C72.4444 150.805 72.4629 150.771 72.4875 150.741C72.5122 150.711 72.5426 150.686 72.577 150.669C72.892 150.472 73.1547 150.202 73.3426 149.882C73.5305 149.561 73.638 149.2 73.6559 148.83C73.658 148.782 73.6728 148.736 73.6987 148.696C73.7246 148.657 73.7607 148.624 73.8032 148.603Z" fill="#292929"/>
<path d="M85.1104 157.046C84.9993 157.162 84.872 157.283 84.743 157.395L81.5884 156.551C81.5884 156.551 81.6597 156.366 81.7886 156.093C82.2018 155.158 83.2396 153.124 84.5219 152.972C84.6702 152.964 84.8191 152.969 84.9664 152.989C85.5069 153.042 86.0102 153.288 86.3846 153.682C86.9187 154.324 86.8761 155.367 85.1104 157.046Z" fill="#292929"/>
<path d="M84.9909 153.027L82.1846 156.163L81.7935 156.119C82.2067 155.183 83.2445 153.15 84.5268 152.998C84.6821 152.992 84.8376 153.002 84.9909 153.027Z" fill="white"/>
<path d="M85.1083 157.046C84.3124 155.967 85.5531 154.492 86.4073 153.718C86.9166 154.323 86.874 155.367 85.1083 157.046Z" fill="#624CF5"/>
<path d="M85.1636 160.597L84.7492 159.879C85.4429 159.469 87.3516 158.227 87.8729 157.362C88.6864 155.425 89.3597 153.433 89.8877 151.399L90.6908 151.628C90.631 151.828 89.2986 156.603 88.5983 157.786C87.8981 158.968 85.3012 160.525 85.1636 160.597Z" fill="#292929"/>
<path d="M85.2376 160.741L86.0215 160.237C86.1533 160.154 86.2468 160.022 86.2815 159.87C86.3161 159.718 86.2892 159.558 86.2065 159.426C86.1202 159.296 85.9864 159.205 85.8336 159.172C85.6809 159.139 85.5214 159.167 85.3893 159.251L84.6037 159.747C84.4737 159.832 84.3822 159.964 84.3491 160.116C84.316 160.267 84.3439 160.425 84.4268 160.556C84.51 160.688 84.642 160.782 84.794 160.816C84.9459 160.851 85.1054 160.824 85.2376 160.741Z" fill="#292929"/>
<path d="M93.0847 146.178C93.2472 146.932 93.258 147.71 93.1166 148.468C92.9752 149.226 92.6843 149.948 92.261 150.592C91.1204 152.3 89.1911 151.596 88.3846 149.825C87.6483 148.225 87.3614 145.419 89.0552 144.324C89.4289 144.093 89.8537 143.959 90.2919 143.932C90.7301 143.905 91.1681 143.987 91.5669 144.171C91.9657 144.355 92.313 144.634 92.5778 144.984C92.8426 145.334 93.0167 145.744 93.0847 146.178Z" fill="#847DFC"/>
<path d="M74.7469 143.265C76.413 142.32 80.9149 140.547 82.1545 141.278C83.3942 142.008 87.9609 152.917 90.425 153.1C92.8891 153.284 96.1754 148.605 95.1079 145.235C94.5479 143.306 93.2732 141.665 91.544 140.644C91.544 140.644 89.0181 131.731 79.7399 134.418C70.4617 137.106 69.8003 145.302 70.4991 147.97C71.3754 145.988 72.8643 144.339 74.7469 143.265Z" fill="#292929"/>
<path opacity="0.9" d="M74.7469 143.265C76.413 142.32 80.9149 140.547 82.1545 141.278C83.3942 142.008 87.9609 152.917 90.425 153.1C92.8891 153.284 96.1754 148.605 95.1079 145.235C94.5479 143.306 93.2732 141.665 91.544 140.644C91.544 140.644 89.0181 131.731 79.7399 134.418C70.4617 137.106 69.8003 145.302 70.4991 147.97C71.3754 145.988 72.8643 144.339 74.7469 143.265Z" fill="white"/>
<path d="M65.06 133.37L66.2383 132.765C69.3422 129.814 73.1849 127.754 77.3613 126.804C84.5729 125.053 96.653 129.372 101.152 141.728C101.328 142.2 101.471 142.636 101.591 143.043C101.714 143.403 101.817 143.769 101.899 144.14L101.907 144.181C102.022 144.641 102.101 145.109 102.143 145.581C103.094 153.377 97.9454 160.485 97.9454 160.485C96.0226 163.231 93.5772 165.571 90.7492 167.372L89.1729 166.814C101.112 158.816 96.1073 144.947 96.1073 144.947L89.9045 137.496C89.9045 137.496 75.1971 126.515 62.8849 137.407L62.2022 137.026C63.0419 135.723 63.9985 134.499 65.06 133.37Z" fill="#847DFC"/>
<path opacity="0.7" d="M62.1768 137.031L62.8497 137.406C75.1717 126.52 89.871 137.503 89.871 137.503L96.0738 144.954C96.0738 144.954 101.054 158.828 89.1719 166.814L90.7905 167.371C91.9725 166.611 93.0911 165.757 94.1352 164.817C95.5996 163.544 96.8911 162.086 97.9768 160.478C97.9768 160.478 103.125 153.371 102.175 145.574C102.136 145.102 102.057 144.633 101.939 144.174C101.931 144.159 101.928 144.142 101.928 144.125C101.848 143.744 101.73 143.387 101.614 143.038C101.498 142.69 101.353 142.203 101.175 141.723C96.6827 129.358 84.5962 125.048 77.3846 126.8C73.2402 127.749 69.423 129.784 66.3244 132.696L66.2616 132.76L65.0834 133.365C64.0033 134.494 63.0303 135.722 62.1768 137.031Z" fill="white"/>
<path opacity="0.2" d="M62.1765 137.031L62.8494 137.407C75.1714 126.521 89.8707 137.504 89.8707 137.504L96.0735 144.954C96.0735 144.954 101.054 158.828 89.1716 166.814L90.7902 167.372C91.9722 166.612 93.0908 165.757 94.1349 164.817C96.9807 160.943 100.747 149.98 97.0284 145.219C94.7719 142.376 92.8072 139.313 91.1639 136.077C91.1639 136.077 78.2582 126.802 66.2835 132.705C65.8755 132.901 65.4582 133.133 65.0425 133.374C63.9769 134.502 63.0176 135.727 62.1765 137.031Z" fill="black"/>
<path d="M90.4807 136.366C91.7674 135.552 93.5093 135.769 95.1439 136.764C96.6275 137.188 97.9037 138.142 98.7305 139.445C99.5573 140.747 99.877 142.308 99.6291 143.831C99.8348 145.73 99.296 147.395 98.011 148.218C95.8417 149.591 92.4047 148.053 90.3176 144.753C88.2304 141.454 88.3263 137.771 90.4807 136.366Z" fill="#847DFC"/>
<path opacity="0.5" d="M90.4807 136.366C91.7674 135.552 93.5093 135.769 95.1439 136.764C96.6275 137.188 97.9037 138.142 98.7305 139.445C99.5573 140.747 99.877 142.308 99.6291 143.831C99.8348 145.73 99.296 147.395 98.011 148.218C95.8417 149.591 92.4047 148.053 90.3176 144.753C88.2304 141.454 88.3263 137.771 90.4807 136.366Z" fill="white"/>
<path opacity="0.2" d="M93.313 142.916C94.7445 145.158 97.1271 146.241 98.6304 145.288C100.134 144.334 100.169 141.732 98.7328 139.466C97.2962 137.199 94.9188 136.141 93.4237 137.092C91.9285 138.044 91.8764 140.65 93.313 142.916Z" fill="white"/>
<path opacity="0.2" d="M63.2022 142.777C64.6698 142.673 66.1432 142.682 67.6094 142.805C68.8219 140.078 70.4835 137.575 72.525 135.399C72.525 135.399 70.1333 134.835 66.1789 136.67C64.8186 138.505 63.8094 140.575 63.2022 142.777Z" fill="white"/>
<path opacity="0.2" d="M65.4096 158.126C64.7924 153.427 65.3482 148.649 67.0274 144.217C65.5726 143.913 64.1686 143.65 63.0357 143.465C62.0781 147.687 61.89 153.264 65.4096 158.126Z" fill="white"/>
<path d="M126.472 19.4673L119.311 26.5589C119.254 26.6211 119.186 26.6715 119.111 26.7071C119.035 26.7427 118.952 26.7629 118.869 26.7663C118.785 26.7698 118.701 26.7565 118.623 26.7273C118.544 26.6981 118.472 26.6535 118.411 26.5961L112.444 21.2666C112.15 20.9704 111.984 20.5701 111.984 20.1527C111.983 19.7353 112.147 19.3344 112.44 19.0371C114.979 16.6017 116.32 15.5639 119.53 12.4524C121.476 10.5408 125.126 6.58176 128.19 4.38321C131.253 2.18467 133.348 5.27876 132.244 6.47844C129.634 9.33613 127.659 14.8071 127.257 18.0042C127.171 18.5674 126.893 19.0839 126.472 19.4673Z" fill="#847DFC"/>
<path opacity="0.5" d="M126.472 19.4673L119.311 26.5589C119.254 26.6211 119.186 26.6715 119.111 26.7071C119.035 26.7427 118.952 26.7629 118.869 26.7663C118.785 26.7698 118.701 26.7565 118.623 26.7273C118.544 26.6981 118.472 26.6535 118.411 26.5961L112.444 21.2666C112.15 20.9704 111.984 20.5701 111.984 20.1527C111.983 19.7353 112.147 19.3344 112.44 19.0371C114.979 16.6017 116.32 15.5639 119.53 12.4524C121.476 10.5408 125.126 6.58176 128.19 4.38321C131.253 2.18467 133.348 5.27876 132.244 6.47844C129.634 9.33613 127.659 14.8071 127.257 18.0042C127.171 18.5674 126.893 19.0839 126.472 19.4673Z" fill="white"/>
<path d="M127.106 18.4518L128.098 20.0149L118.601 27.5316L117.765 26.2239L127.106 18.4518Z" fill="#847DFC"/>
<path d="M77.6019 51.7379C77.6019 51.7379 81.7724 59.2021 78.3604 64.6119L80.0547 65.2464C80.0547 65.2464 84.2579 58.6436 79.5381 52.313L77.6019 51.7379Z" fill="#847DFC"/>
<path d="M133.729 63.8552L133.711 62.163C133.711 62.163 139.697 55.9302 150.217 59.086L150.951 62.5607C150.951 62.5607 141.814 58.6465 133.729 63.8552Z" fill="#847DFC"/>
<path d="M117.042 72.458C117.042 72.458 110.837 85.886 101.707 84.1751L101.088 82.6097C101.088 82.6097 109.256 83.8198 114.964 70.7682L117.042 72.458Z" fill="#847DFC"/>
<path opacity="0.1" d="M117.851 154.799L118.376 154.391C122.462 150.891 129.659 137.296 130.952 127.636C126.359 129.979 114.664 136.204 111.568 140.699C107.9 146.019 112.018 154.521 117.851 154.799Z" fill="black"/>
<path opacity="0.4" d="M77.6019 51.7379C77.6019 51.7379 81.7724 59.2021 78.3604 64.6119L80.0547 65.2464C80.0547 65.2464 84.2579 58.6436 79.5381 52.313L77.6019 51.7379Z" fill="white"/>
<path opacity="0.4" d="M117.042 72.458C117.042 72.458 110.837 85.886 101.707 84.1751L101.088 82.6097C101.088 82.6097 109.256 83.8198 114.964 70.7682L117.042 72.458Z" fill="white"/>
<path opacity="0.4" d="M127.106 18.4518L128.098 20.0149L118.601 27.5316L117.765 26.2239L127.106 18.4518Z" fill="white"/>
<path opacity="0.4" d="M133.729 63.8552L133.711 62.163C133.711 62.163 139.697 55.9302 150.217 59.086L150.951 62.5607C150.951 62.5607 141.814 58.6465 133.729 63.8552Z" fill="white"/>
<path d="M129.247 139.36C128.978 139.417 128.697 139.382 128.449 139.262C128.201 139.142 128 138.944 127.877 138.697C127.754 138.45 127.716 138.17 127.77 137.9C127.824 137.629 127.965 137.385 128.173 137.204C130.81 134.951 131.957 132.513 131.699 129.802C130.936 121.568 117.573 113.704 117.438 113.622C117.281 113.549 117.141 113.444 117.027 113.314C116.913 113.184 116.828 113.032 116.776 112.867C116.724 112.703 116.707 112.529 116.726 112.357C116.745 112.185 116.8 112.019 116.886 111.87C116.973 111.72 117.09 111.59 117.229 111.489C117.369 111.387 117.528 111.315 117.697 111.278C117.866 111.241 118.04 111.24 118.21 111.274C118.379 111.308 118.54 111.377 118.681 111.477C119.28 111.825 133.285 120.08 134.17 129.578C134.497 133.096 133.044 136.294 129.783 139.086C129.63 139.221 129.446 139.315 129.247 139.36Z" fill="#847DFC"/>
<path d="M128.817 144.387C128.597 144.431 128.371 144.415 128.159 144.342C127.948 144.269 127.761 144.141 127.616 143.971C127.471 143.801 127.374 143.595 127.335 143.375C127.297 143.155 127.318 142.928 127.396 142.719C132.747 128.776 115.512 121.008 114.775 120.689C114.625 120.623 114.49 120.528 114.376 120.41C114.263 120.292 114.174 120.153 114.115 120C114.056 119.848 114.027 119.685 114.031 119.522C114.034 119.358 114.07 119.197 114.136 119.047C114.201 118.897 114.296 118.762 114.414 118.649C114.532 118.536 114.672 118.447 114.824 118.388C114.976 118.328 115.139 118.3 115.303 118.303C115.466 118.307 115.628 118.342 115.777 118.408C115.973 118.494 135.919 127.454 129.721 143.611C129.649 143.806 129.528 143.98 129.369 144.116C129.211 144.252 129.021 144.345 128.817 144.387Z" fill="#847DFC"/>
<path d="M118.27 154.05C121.91 152.374 125.621 150.548 129.259 148.822C131.074 147.938 132.889 147.097 134.657 146.274C136.426 145.452 138.237 144.671 139.806 144.068C140.19 143.919 140.592 143.775 140.861 143.684C141.13 143.594 141.362 143.528 141.319 143.486C141.236 143.502 141.151 143.505 141.067 143.497L140.994 143.512L141.075 143.495L141.246 143.459L141.931 143.45L143.361 143.437C145.291 143.419 147.299 143.453 149.311 143.503C153.375 143.553 157.559 143.645 161.743 143.423L161.808 143.41C162.658 143.364 163.468 143.034 164.109 142.473C164.749 141.911 165.182 141.152 165.339 140.315C165.495 139.478 165.367 138.613 164.973 137.858C164.58 137.103 163.944 136.503 163.168 136.152C159.218 134.425 155.142 133.003 150.975 131.899C148.894 131.321 146.775 130.844 144.567 130.428C144.009 130.317 143.463 130.22 142.88 130.148L142.006 130.027L141.788 129.997L141.682 130.019L141.417 130.007C141.059 129.998 140.694 129.999 140.332 130.007C139.455 130.06 138.584 130.173 137.723 130.346C137.001 130.498 136.376 130.63 135.759 130.761C133.345 131.38 131.27 132.115 129.179 132.853C127.087 133.592 125.116 134.415 123.134 135.232C119.173 136.916 115.379 138.666 111.568 140.7C109.792 141.578 108.438 143.125 107.802 145.001C107.167 146.878 107.303 148.929 108.181 150.705C109.058 152.481 110.605 153.836 112.481 154.471C114.358 155.107 116.41 154.971 118.186 154.093L118.27 154.05Z" fill="#847DFC"/>
<path opacity="0.7" d="M118.27 154.05C121.91 152.374 125.621 150.548 129.259 148.822C131.074 147.938 132.889 147.097 134.657 146.274C136.426 145.452 138.237 144.671 139.806 144.068C140.19 143.919 140.592 143.775 140.861 143.684C141.13 143.594 141.362 143.528 141.319 143.486C141.236 143.502 141.151 143.505 141.067 143.497L140.994 143.512L141.075 143.495L141.246 143.459L141.931 143.45L143.361 143.437C145.291 143.419 147.299 143.453 149.311 143.503C153.375 143.553 157.559 143.645 161.743 143.423L161.808 143.41C162.658 143.364 163.468 143.034 164.109 142.473C164.749 141.911 165.182 141.152 165.339 140.315C165.495 139.478 165.367 138.613 164.973 137.858C164.58 137.103 163.944 136.503 163.168 136.152C159.218 134.425 155.142 133.003 150.975 131.899C148.894 131.321 146.775 130.844 144.567 130.428C144.009 130.317 143.463 130.22 142.88 130.148L142.006 130.027L141.788 129.997L141.682 130.019L141.417 130.007C141.059 129.998 140.694 129.999 140.332 130.007C139.455 130.06 138.584 130.173 137.723 130.346C137.001 130.498 136.376 130.63 135.759 130.761C133.345 131.38 131.27 132.115 129.179 132.853C127.087 133.592 125.116 134.415 123.134 135.232C119.173 136.916 115.379 138.666 111.568 140.7C109.792 141.578 108.438 143.125 107.802 145.001C107.167 146.878 107.303 148.929 108.181 150.705C109.058 152.481 110.605 153.836 112.481 154.471C114.358 155.107 116.41 154.971 118.186 154.093L118.27 154.05Z" fill="white"/>
<path d="M162.142 137.352L169.068 135.212L167.896 143.159C167.896 143.159 161.598 144.7 160.948 141.42L162.142 137.352Z" fill="#847DFC"/>
<path d="M176.024 136.949L172.696 143.443L167.891 143.134L169.063 135.187L176.024 136.949Z" fill="#847DFC"/>
<g opacity="0.5">
<path opacity="0.5" d="M162.141 137.352L169.067 135.212L167.895 143.159C167.895 143.159 161.597 144.7 160.947 141.42L162.141 137.352Z" fill="white"/>
<path opacity="0.5" d="M176.023 136.949L172.695 143.443L167.89 143.134L169.062 135.187L176.023 136.949Z" fill="white"/>
</g>
<path d="M164.262 136.667C164.262 136.667 160.81 139.516 162.809 143.241L161.156 143.446C161.156 143.446 158.353 139.967 163.222 136.158L164.262 136.667Z" fill="#847DFC"/>
<path d="M113.127 139.684C113.127 139.684 104.173 150.818 117.427 154.389L116.126 155.215C116.126 155.215 109.528 156.302 107.837 149.052C106.177 141.991 113.127 139.684 113.127 139.684Z" fill="#847DFC"/>
<path d="M140.352 129.977C140.352 129.977 137.644 135.586 141.345 143.48L140.389 143.852C139.287 141.752 138.613 139.454 138.405 137.092C138.198 134.729 138.461 132.349 139.18 130.089L140.352 129.977Z" fill="#847DFC"/>
<path opacity="0.4" d="M164.262 136.667C164.262 136.667 160.81 139.516 162.809 143.241L161.156 143.446C161.156 143.446 158.353 139.967 163.222 136.158L164.262 136.667Z" fill="white"/>
<path opacity="0.4" d="M113.127 139.684C113.127 139.684 104.173 150.818 117.427 154.389L116.126 155.215C116.126 155.215 109.528 156.302 107.837 149.052C106.177 141.991 113.127 139.684 113.127 139.684Z" fill="white"/>
<path opacity="0.4" d="M140.352 129.977C140.352 129.977 137.644 135.586 141.345 143.48L140.389 143.852C139.287 141.752 138.613 139.454 138.405 137.092C138.198 134.729 138.461 132.349 139.18 130.089L140.352 129.977Z" fill="white"/>
<path d="M111.302 103.926L98.2013 123.135L92.4616 124.346L105.822 105.083C105.822 105.083 108.677 102.216 111.302 103.926Z" fill="#847DFC"/>
<path opacity="0.2" d="M111.302 103.926L98.2013 123.135C97.2661 122.584 96.1585 122.402 95.0963 122.627C94.0342 122.851 93.0944 123.464 92.4616 124.346L105.822 105.083C105.822 105.083 108.677 102.216 111.302 103.926Z" fill="white"/>
<path d="M93.3911 109.174C93.1717 109.402 92.9315 109.609 92.6735 109.792C92.2328 110.099 91.7401 110.324 91.2192 110.455C90.6185 110.582 90.1278 110.508 89.8999 110.191C89.672 109.874 89.8511 109.116 90.3879 108.485C90.6381 108.205 90.9219 107.958 91.2328 107.747C91.6204 107.465 92.0559 107.255 92.5183 107.128C93.1882 106.927 93.7536 106.995 93.9983 107.35C94.2429 107.706 94.0249 108.481 93.3911 109.174Z" fill="#292929"/>
<path d="M39.085 56.3145L38.9344 55.9223C38.9344 55.9223 40.7673 55.2046 41.1726 53.9912L41.5646 54.1205C41.0897 55.5267 39.1628 56.2811 39.085 56.3145Z" fill="white"/>
<path d="M39.3624 57.2655L39.0777 56.961C40.4631 55.6869 42.1037 54.722 43.8905 54.1303L43.9762 54.5363C42.2649 55.1146 40.6934 56.0442 39.3624 57.2655Z" fill="white"/>
<path d="M39.4092 57.5695L39.1535 57.2419C41.4311 55.4976 42.6945 55.8584 42.7484 55.8725L42.6289 56.2708C42.6289 56.2708 41.4882 55.9689 39.4092 57.5695Z" fill="white"/>
<path d="M93.3913 109.174C93.1719 109.402 92.9316 109.609 92.6737 109.792C92.233 110.099 91.7402 110.324 91.2194 110.455C91.035 109.943 90.7705 109.252 90.4124 108.48C89.3403 105.946 87.6079 103.746 85.396 102.11C78.8059 97.7261 72.2105 98.6602 65.23 99.6588C58.5534 100.61 51.6461 101.593 44.4371 97.9334C37.0858 94.202 31.9425 85.3828 31.3164 75.4659C30.7613 66.5687 33.9101 58.9079 39.7493 54.9532L41.143 57.0165C36.0455 60.467 33.2996 67.3049 33.8029 75.3142C34.3726 84.361 38.9882 92.3673 45.5658 95.7278C52.1434 99.0883 58.2927 98.1296 64.8817 97.2052C72.0117 96.1921 79.3968 95.1421 86.785 100.053C89.2851 101.874 91.2633 104.319 92.5219 107.144C92.8876 107.873 93.1752 108.592 93.3913 109.174Z" fill="#292929"/>
<g opacity="0.5">
<path opacity="0.5" d="M93.3913 109.174C93.1719 109.402 92.9316 109.609 92.6737 109.792C92.233 110.099 91.7402 110.324 91.2194 110.455C91.035 109.943 90.7705 109.252 90.4124 108.48C89.3403 105.946 87.6079 103.746 85.396 102.11C78.8059 97.7261 72.2105 98.6602 65.23 99.6588C58.5534 100.61 51.6461 101.593 44.4371 97.9334C37.0858 94.202 31.9425 85.3828 31.3164 75.4659C30.7613 66.5687 33.9101 58.9079 39.7493 54.9532L41.143 57.0165C36.0455 60.467 33.2996 67.3049 33.8029 75.3142C34.3726 84.361 38.9882 92.3673 45.5658 95.7278C52.1434 99.0883 58.2927 98.1296 64.8817 97.2052C72.0117 96.1921 79.3968 95.1421 86.785 100.053C89.2851 101.874 91.2633 104.319 92.5219 107.144C92.8876 107.873 93.1752 108.592 93.3913 109.174Z" fill="white"/>
</g>
</svg>
