<svg width="53" height="55" viewBox="0 0 53 55" fill="none" xmlns="http://www.w3.org/2000/svg">
  <path d="M46.9032 47.4314L12.2049 54.7554C11.2617 54.9545 10.2886 54.9657 9.34113 54.7884C8.39365 54.6111 7.49039 54.2488 6.68301 53.7223C5.87564 53.1957 5.18 52.5151 4.63582 51.7195C4.09165 50.9238 3.70962 50.0287 3.51162 49.0854L0.941195 36.9077C0.539435 35.0043 0.910245 33.0192 1.97206 31.3893C3.03387 29.7593 4.6997 28.6179 6.60308 28.2161L29.6596 23.3494L36.2548 0.0574285L34.5306 22.3213L41.342 20.8835C42.2849 20.6834 43.2581 20.6711 44.2057 20.8473C45.1534 21.0235 46.0571 21.3847 46.8651 21.9104C47.673 22.4361 48.3695 23.1159 48.9145 23.9109C49.4596 24.7059 49.8426 25.6006 50.0417 26.5437L52.6121 38.7214C52.812 39.6684 52.8228 40.6455 52.6437 41.5966C52.4647 42.5477 52.0993 43.4541 51.5688 44.2635C51.0383 45.073 50.3529 45.7695 49.5523 46.3132C48.7516 46.8568 47.8513 47.2369 46.9032 47.4314Z" fill="#A2A4FF"/>
  <text x="50%" y="70%" text-anchor="middle" dominant-baseline="central" font-size="10" font-family="Arial" fill="white" font-weight="bold">
    Oops!
  </text>
</svg>
